<svg width="237" height="241" viewBox="0 0 237 241" fill="none" xmlns="http://www.w3.org/2000/svg">
<path d="M232.983 0H187.99L187.544 7.26543C187.161 13.515 186.293 19.7482 184.337 25.6964C175.584 52.3275 158.726 76.2087 135.639 94.4957L88.5493 131.796C59.4042 154.882 40.3031 186.784 34.731 221.682L32.924 233H81.9343L85.8874 216.907C93.739 184.943 113.037 156.295 140.717 135.51L183.501 103.384C217.115 78.1427 235.507 39.7168 232.983 0Z" fill="#3E4249"/>
<rect x="73.8999" y="19.8456" width="123.731" height="19.1104" rx="9.5552" fill="#3E4249"/>
<rect x="73.8999" y="52.1845" width="109.269" height="19.1104" rx="9.5552" fill="#3E4249"/>
<rect x="196.024" y="212.422" width="123.731" height="19.1104" rx="9.5552" transform="rotate(180 196.024 212.422)" fill="#3E4249"/>
<rect x="196.024" y="180.076" width="109.269" height="19.1104" rx="9.5552" transform="rotate(180 196.024 180.076)" fill="#3E4249"/>
<path d="M36.9413 0H82.9559V4.14895C82.9559 12.4576 83.8161 20.7963 86.5872 28.6292C95.5912 54.08 112.049 76.8826 134.285 94.4957L181.375 131.796C210.52 154.882 229.621 186.784 235.193 221.682L237 233H187.99L184.036 216.907C176.185 184.943 156.887 156.295 129.207 135.51L86.4232 103.384C52.8087 78.1427 34.4172 39.7168 36.9413 0Z" fill="#3E4249"/>
<g filter="url(#filter0_d_3_29)">
<path d="M204.059 0H159.066L158.62 7.26543C158.237 13.515 157.369 19.7482 155.413 25.6964C146.66 52.3275 129.802 76.2087 106.715 94.4957L59.6253 131.796C30.4802 154.882 11.3791 186.784 5.80705 221.682L4.00002 233H53.0104L56.9635 216.907C64.8151 184.943 84.1128 156.295 111.793 135.51L154.577 103.384C188.191 78.1427 206.583 39.7168 204.059 0Z" fill="white"/>
<rect x="44.9754" y="19.8456" width="123.731" height="19.1104" rx="9.5552" fill="white"/>
<rect x="44.9754" y="52.1845" width="109.269" height="19.1104" rx="9.5552" fill="white"/>
<rect x="167.1" y="212.422" width="123.731" height="19.1104" rx="9.5552" transform="rotate(180 167.1 212.422)" fill="white"/>
<rect x="167.1" y="180.076" width="109.269" height="19.1104" rx="9.5552" transform="rotate(180 167.1 180.076)" fill="white"/>
<path d="M8.01668 0H54.0313V4.14895C54.0313 12.4576 54.8915 20.7963 57.6626 28.6292C66.6666 54.08 83.1244 76.8826 105.36 94.4957L152.45 131.796C181.595 154.882 200.696 186.784 206.268 221.682L208.075 233H159.065L155.112 216.907C147.26 184.943 127.963 156.295 100.282 135.51L57.4986 103.384C23.8841 78.1427 5.49257 39.7168 8.01668 0Z" fill="white"/>
</g>
<defs>
<filter id="filter0_d_3_29" x="0" y="0" width="212.075" height="241" filterUnits="userSpaceOnUse" color-interpolation-filters="sRGB">
<feFlood flood-opacity="0" result="BackgroundImageFix"/>
<feColorMatrix in="SourceAlpha" type="matrix" values="0 0 0 0 0 0 0 0 0 0 0 0 0 0 0 0 0 0 127 0" result="hardAlpha"/>
<feOffset dy="4"/>
<feGaussianBlur stdDeviation="2"/>
<feComposite in2="hardAlpha" operator="out"/>
<feColorMatrix type="matrix" values="0 0 0 0 0 0 0 0 0 0 0 0 0 0 0 0 0 0 0.2 0"/>
<feBlend mode="normal" in2="BackgroundImageFix" result="effect1_dropShadow_3_29"/>
<feBlend mode="normal" in="SourceGraphic" in2="effect1_dropShadow_3_29" result="shape"/>
</filter>
</defs>
</svg>
