<svg width="448" height="452" viewBox="0 0 448 452" fill="none" xmlns="http://www.w3.org/2000/svg">
<path d="M440.344 0H354.607L353.236 22.3529C352.853 28.6024 351.937 34.8184 350.177 40.8271C334.349 94.8443 301.181 143.369 254.849 180.069L165.115 251.147C109.577 295.14 73.1783 355.932 62.5603 422.433L59.1168 444H152.51L160.043 413.333C175.005 352.424 211.778 297.832 264.525 258.225L346.053 197.006C410.108 148.907 445.154 75.6836 440.344 0Z" fill="#3E4249"/>
<rect x="137.2" y="37.8175" width="235.779" height="36.4164" rx="18.2082" fill="#3E4249"/>
<rect x="137.2" y="99.4419" width="208.221" height="36.4164" rx="18.2082" fill="#3E4249"/>
<rect x="369.917" y="404.787" width="235.779" height="36.4164" rx="18.2082" transform="rotate(180 369.917 404.787)" fill="#3E4249"/>
<rect x="369.917" y="343.149" width="208.221" height="36.4164" rx="18.2082" transform="rotate(180 369.917 343.149)" fill="#3E4249"/>
<path d="M66.7723 0H154.457V19.2364C154.457 27.545 155.398 35.8504 157.829 43.7956C173.99 96.6214 206.786 144.042 252.268 180.069L342.001 251.147C397.54 295.14 433.938 355.932 444.556 422.433L448 444H354.607L347.074 413.333C332.112 352.424 295.339 297.832 242.591 258.225L161.064 197.006C97.009 148.907 61.9624 75.6836 66.7723 0Z" fill="#3E4249"/>
<g filter="url(#filter0_d_3_2)">
<path d="M385.228 0H299.49L298.119 22.3529C297.736 28.6024 296.82 34.8184 295.06 40.8271C279.232 94.8443 246.064 143.369 199.732 180.069L109.998 251.147C54.4602 295.14 18.0615 355.932 7.44348 422.433L4.00001 444H97.3931L104.926 413.333C119.888 352.424 156.661 297.832 209.408 258.225L290.936 197.006C354.991 148.907 390.038 75.6836 385.228 0Z" fill="#DFDFDF"/>
<rect x="82.0818" y="37.8175" width="235.779" height="36.4164" rx="18.2082" fill="#DFDFDF"/>
<rect x="82.0818" y="99.4419" width="208.221" height="36.4164" rx="18.2082" fill="#DFDFDF"/>
<rect x="314.8" y="404.787" width="235.779" height="36.4164" rx="18.2082" transform="rotate(180 314.8 404.787)" fill="#DFDFDF"/>
<rect x="314.8" y="343.149" width="208.221" height="36.4164" rx="18.2082" transform="rotate(180 314.8 343.149)" fill="#DFDFDF"/>
<path d="M11.6541 0H99.3385V19.2364C99.3385 27.545 100.28 35.8504 102.711 43.7956C118.871 96.6214 151.668 144.042 197.15 180.069L286.883 251.147C342.422 295.14 378.82 355.932 389.438 422.433L392.882 444H299.489L291.956 413.333C276.994 352.424 240.22 297.832 187.473 258.225L105.946 197.006C41.8908 148.907 6.84422 75.6836 11.6541 0Z" fill="#DFDFDF"/>
</g>
<defs>
<filter id="filter0_d_3_2" x="9.53674e-06" y="0" width="396.882" height="452" filterUnits="userSpaceOnUse" color-interpolation-filters="sRGB">
<feFlood flood-opacity="0" result="BackgroundImageFix"/>
<feColorMatrix in="SourceAlpha" type="matrix" values="0 0 0 0 0 0 0 0 0 0 0 0 0 0 0 0 0 0 127 0" result="hardAlpha"/>
<feOffset dy="4"/>
<feGaussianBlur stdDeviation="2"/>
<feComposite in2="hardAlpha" operator="out"/>
<feColorMatrix type="matrix" values="0 0 0 0 0 0 0 0 0 0 0 0 0 0 0 0 0 0 0.2 0"/>
<feBlend mode="normal" in2="BackgroundImageFix" result="effect1_dropShadow_3_2"/>
<feBlend mode="normal" in="SourceGraphic" in2="effect1_dropShadow_3_2" result="shape"/>
</filter>
</defs>
</svg>
